<svg xmlns="http://www.w3.org/2000/svg" width="17" height="16.998" viewBox="0 0 17 16.998">
  <g id="Group_1" data-name="Group 1" transform="translate(0 0)">
    <path id="Path_1" data-name="Path 1" d="M0,8.493C0,6.678,0,4.864,0,3.05A3.016,3.016,0,0,1,2.451.064,2.545,2.545,0,0,1,2.959.007Q5.718,0,8.477,0a.606.606,0,0,1,.15,1.2,1.218,1.218,0,0,1-.245.014H3.148a1.827,1.827,0,0,0-1.93,1.923q0,5.358,0,10.715a1.824,1.824,0,0,0,1.924,1.929H13.856a1.826,1.826,0,0,0,1.929-1.925q0-2.655,0-5.31A.608.608,0,1,1,17,8.537c0,.8,0,1.606,0,2.409q0,1.47,0,2.94A3.032,3.032,0,0,1,13.884,17Q8.5,17,3.111,17A3.016,3.016,0,0,1,.066,14.556,3.517,3.517,0,0,1,0,13.86Q0,11.176,0,8.493Z" transform="translate(0 -0.004)" fill="#bdbec0"/>
    <path id="Path_2" data-name="Path 2" d="M215.057,1.231H212.37a.629.629,0,0,1-.7-.621A.628.628,0,0,1,212.378,0h4.136a.616.616,0,0,1,.694.683q0,2.106,0,4.213a.611.611,0,0,1-.449.62.581.581,0,0,1-.67-.25.845.845,0,0,1-.108-.4c-.009-.84,0-1.68,0-2.52V2.112c-.081.078-.134.127-.185.179q-3.346,3.346-6.691,6.693a.653.653,0,0,1-.706.222.613.613,0,0,1-.288-.971,2,2,0,0,1,.147-.152q3.333-3.331,6.668-6.662a2.023,2.023,0,0,1,.164-.134Z" transform="translate(-200.21 0)" fill="#bdbec0"/>
  </g>
</svg>
