<svg xmlns="http://www.w3.org/2000/svg" width="16.279" height="15.502" viewBox="0 0 16.279 15.502">
  <g id="Iconly_Light_Heart" data-name="Iconly/Light/Heart" transform="translate(0.765 0.779)">
    <g id="Heart" transform="translate(0 0)">
      <path id="Path_33961" d="M7.189,13.859a27.044,27.044,0,0,1-4.674-3.64A9.308,9.308,0,0,1,.29,6.672C-.546,4.076.43,1.1,3.16.223A4.641,4.641,0,0,1,7.371.933h0A4.648,4.648,0,0,1,11.583.223c2.73.88,3.713,3.852,2.878,6.449a9.308,9.308,0,0,1-2.225,3.547,27.044,27.044,0,0,1-4.674,3.64l-.182.114Z" transform="translate(0 0)" fill="none" stroke="#fff" stroke-linecap="round" stroke-linejoin="round" stroke-miterlimit="10" stroke-width="1.5"/>
      <path id="Path_33964" d="M0,0A2.159,2.159,0,0,1,1.488,1.88" transform="translate(10.277 3.146)" fill="none" stroke="#fff" stroke-linecap="round" stroke-linejoin="round" stroke-miterlimit="10" stroke-width="1.5"/>
    </g>
  </g>
</svg>
