<svg xmlns="http://www.w3.org/2000/svg" xmlns:xlink="http://www.w3.org/1999/xlink" width="1005.563" height="567.028" viewBox="0 0 1005.563 567.028">
  <defs>
    <radialGradient id="radial-gradient" cx="0.652" cy="0.766" r="0.813" gradientTransform="translate(-0.814 0.461) rotate(-90) scale(1 0.564)" gradientUnits="objectBoundingBox">
      <stop offset="0" stop-color="#f9fbfc"/>
      <stop offset="1" stop-color="#f9fbfc" stop-opacity="0"/>
    </radialGradient>
  </defs>
  <path id="Path_8328" data-name="Path 8328" d="M177.213,821h-4.851v4.851h4.851Zm581.809-23.422h-4.851v4.851h4.851Zm23.271,0h-4.851v4.851h4.851Zm162.907,0h-4.851v4.851H945.2Zm232.725,0h-4.851v4.851h4.851Zm-1000.711,0h-4.851v4.851h4.851Zm349.084,0h-4.851v4.851H526.3Zm395.632,0h-4.851v4.851h4.851Zm-628.357,0h-4.851v4.851h4.851Zm581.812,0H870.53v4.851h4.854Zm186.177,0h-4.851v4.851h4.851Zm46.544,0h-4.851v4.851h4.851Zm-698.172,0h-4.851v4.851h4.851Zm418.9,0h-4.851v4.851h4.851Zm-209.451,0h-4.851v4.851h4.851Zm93.092,0h-4.851v4.851h4.851Zm-442.176,0h-4.851v4.851H270.3Zm162.907,0h-4.851v4.851h4.851Zm581.809,0h-4.851v4.851h4.851Zm-628.353,0h-4.851v4.851h4.851Zm-46.544,0h-4.854v4.851h4.854Zm511.991,0H847.26v4.851h4.851Zm-488.72,0h-4.851v4.851h4.851Zm-162.907,0h-4.851v4.851h4.851Zm465.45,0h-4.854v4.851h4.854Zm418.9,0h-4.851v4.851h4.851Zm-46.544,0h-4.854v4.851h4.854Zm-395.632,0h-4.851v4.851h4.851Zm488.72,0h-4.851v4.851h4.851Zm-814.534,0H312v4.851h4.851Zm372.358,0h-4.851v4.851H689.2Zm302.54,0h-4.851v4.851h4.851Zm-395.628,0h-4.851v4.851h4.851Zm372.358,0h-4.851v4.851h4.851Zm-721.445,0h-4.851v4.851h4.851Zm558.538,0h-4.851v4.851h4.851Zm-256,0H544.72v4.851h4.851Zm-325.814,0h-4.851v4.851h4.851Zm256,0H474.9v4.851h4.851Zm93.089,0H567.99v4.851h4.851Zm-116.363,0h-4.851v4.851h4.851Zm698.172,0H1149.8v4.851h4.851Zm-256,0H893.8v4.851h4.851Zm-395.628,0h-4.854v4.851h4.854Zm232.722,0H730.9v4.851h4.851ZM642.66,774.152h-4.851V779h4.851Zm23.274,0h-4.854V779h4.854Zm-93.092,0H567.99V779h4.851Zm232.725,0h-4.851V779h4.851Zm46.544,0H847.26V779h4.851Zm-69.818,0h-4.851V779h4.851Zm-232.722,0H544.72V779h4.851Zm209.451,0h-4.851V779h4.851Zm162.907,0h-4.851V779h4.851Zm-23.274,0H893.8V779h4.851Zm-186.177,0h-4.851V779h4.851Zm-23.274,0h-4.851V779H689.2Zm46.544,0H730.9V779h4.851Zm93.089,0h-4.851V779h4.851Zm-209.451,0h-4.851V779h4.851Zm-23.271,0h-4.851V779h4.851Zm279.269,0H870.53V779h4.854Zm-372.358,0h-4.854V779h4.854Zm-93.092,0h-4.851V779h4.851Zm-116.362,0h-4.851V779h4.851Zm814.534,0h-4.851V779h4.851Zm-837.8,0h-4.851V779H270.3Zm884.349,0H1149.8V779h4.851Zm-907.623,0h-4.851V779h4.851Zm279.269,0h-4.851V779H526.3Zm605.083,0h-4.851V779h4.851Zm-674.9,0h-4.851V779h4.851Zm581.812,0h-4.854V779h4.854Zm23.271,0h-4.851V779h4.851Zm-69.818,0h-4.851V779h4.851Zm-511.991,0H474.9V779h4.851Zm-116.362,0h-4.851V779h4.851Zm581.809,0h-4.851V779H945.2Zm-558.535,0h-4.851V779h4.851Zm581.809,0h-4.851V779h4.851Zm-628.353,0h-4.854V779h4.854Zm744.716,0h-4.851V779h4.851Zm-767.99,0H312V779h4.851Zm116.362,0h-4.851V779h4.851Zm-209.451,0h-4.851V779h4.851Zm791.26,0h-4.851V779h4.851Zm-814.534,0h-4.851V779h4.851Zm977.441,0h-4.851V779h4.851Zm-1000.711,0h-4.851V779h4.851ZM363.39,750.73h-4.851v4.851h4.851Zm-46.544,0H312v4.851h4.851Zm69.818,0h-4.851v4.851h4.851Zm698.172,0h-4.851v4.851h4.851Zm-442.176,0h-4.851v4.851h4.851Zm302.54,0h-4.851v4.851H945.2Zm-116.363,0h-4.851v4.851h4.851Zm-279.266,0H544.72v4.851h4.851Zm465.447,0h-4.851v4.851h4.851Zm23.274,0h-4.854v4.851h4.854Zm-349.087,0h-4.851v4.851H689.2Zm372.358,0h-4.851v4.851h4.851Zm-581.809,0H474.9v4.851h4.851Zm-186.181,0h-4.851v4.851h4.851Zm488.72,0h-4.851v4.851h4.851Zm-349.084,0h-4.851v4.851h4.851Zm162.907,0h-4.851v4.851h4.851Zm-418.9,0h-4.851v4.851h4.851Zm674.9,0H847.26v4.851h4.851Zm-186.177,0h-4.854v4.851h4.854Zm-325.814,0h-4.854v4.851h4.854Zm558.535,0H893.8v4.851h4.851Zm93.089,0h-4.851v4.851h4.851Zm-69.815,0h-4.851v4.851h4.851Zm-116.362,0h-4.851v4.851h4.851Zm-349.087,0h-4.851v4.851h4.851Zm-209.451,0h-4.851v4.851h4.851Zm884.352,0h-4.851v4.851h4.851Zm-511.994,0h-4.851v4.851h4.851Zm-349.084,0h-4.851v4.851H270.3Zm465.447,0H730.9v4.851h4.851Zm418.9,0H1149.8v4.851h4.851Zm-279.266,0H870.53v4.851h4.854Zm-651.627,0h-4.851v4.851h4.851Zm302.54,0h-4.851v4.851H526.3Zm-23.27,0h-4.854v4.851h4.854Zm465.447,0h-4.851v4.851h4.851Zm209.451,0h-4.851v4.851h4.851Zm-418.9,0h-4.851v4.851h4.851Zm-46.544,0h-4.851v4.851h4.851Zm395.629,0h-4.851v4.851h4.851Zm-698.172,0h-4.851v4.851h4.851Zm162.907,0H567.99v4.851h4.851Zm-372.358,0h-4.851v4.851h4.851Zm418.9-23.426h-4.851v4.851h4.851Zm418.906,0h-4.854v4.851h4.854Zm-395.632,0h-4.851v4.851h4.851Zm372.358,0h-4.851v4.851h4.851Zm-605.083,0h-4.851v4.851h4.851Zm465.45,0H870.53v4.851h4.854Zm-488.72,0h-4.851v4.851h4.851Zm674.9,0h-4.851v4.851h4.851Zm69.818,0h-4.851v4.851h4.851Zm23.271,0H1149.8v4.851h4.851Zm-930.893,0h-4.851v4.851h4.851Zm23.271,0h-4.851v4.851h4.851Zm558.538,0h-4.851v4.851h4.851Zm-69.818,0H730.9v4.851h4.851Zm-535.265,0h-4.851v4.851h4.851Zm581.809,0h-4.851v4.851h4.851Zm-605.08,0h-4.851v4.851h4.851Zm581.809,0h-4.851v4.851h4.851Zm418.9,0h-4.851v4.851h4.851Zm-93.089,0h-4.851v4.851h4.851Zm-232.725,0H847.26v4.851h4.851Zm-511.991,0h-4.854v4.851h4.854Zm-23.274,0H312v4.851h4.851Zm46.544,0h-4.851v4.851h4.851Zm-93.089,0h-4.851v4.851H270.3Zm395.632,0h-4.854v4.851h4.854Zm23.271,0h-4.851v4.851H689.2Zm23.274,0h-4.851v4.851h4.851Zm395.629,0h-4.851v4.851h4.851Zm-279.269,0h-4.851v4.851h4.851Zm-535.265,0h-4.851v4.851h4.851Zm628.357,0h-4.851v4.851h4.851Zm-442.176,0H474.9v4.851h4.851Zm465.447,0h-4.851v4.851H945.2Zm-372.358,0H567.99v4.851h4.851Zm325.813,0H893.8v4.851h4.851Zm-302.54,0h-4.851v4.851h4.851Zm-162.907,0h-4.851v4.851h4.851Zm23.271,0h-4.851v4.851h4.851Zm69.818,0h-4.851v4.851H526.3Zm465.447,0h-4.851v4.851h4.851Zm-488.717,0h-4.854v4.851h4.854Zm46.544,0H544.72v4.851h4.851Zm418.9,0h-4.851v4.851h4.851ZM526.3,703.882h-4.851v4.851H526.3Zm162.907,0h-4.851v4.851H689.2Zm162.907,0H847.26v4.851h4.851Zm-488.72,0h-4.851v4.851h4.851Zm232.725,0h-4.851v4.851h4.851Zm-372.358,0h-4.851v4.851h4.851Zm511.991,0H730.9v4.851h4.851Zm-93.089,0h-4.851v4.851h4.851Zm302.54,0h-4.851v4.851H945.2Zm-651.627,0h-4.851v4.851h4.851Zm535.265,0h-4.851v4.851h4.851Zm-442.173,0h-4.851v4.851h4.851Zm605.08,0h-4.851v4.851h4.851Zm-279.266,0h-4.851v4.851h4.851Zm-395.632,0H312v4.851h4.851Zm256,0H567.99v4.851h4.851Zm-232.722,0h-4.854v4.851h4.854Zm744.716,0h-4.851v4.851h4.851Zm23.271,0h-4.851v4.851h4.851Zm-209.451,0H893.8v4.851h4.851Zm-628.353,0h-4.851v4.851H270.3Zm861.078,0h-4.851v4.851h4.851Zm-628.353,0h-4.854v4.851h4.854Zm162.907,0h-4.854v4.851h4.854Zm395.628,0h-4.851v4.851h4.851Zm-581.809,0H474.9v4.851h4.851Zm325.814,0h-4.851v4.851h4.851Zm162.907,0h-4.851v4.851h4.851Zm-721.445,0h-4.851v4.851h4.851Zm791.263,0h-4.854v4.851h4.854Zm-861.078,0h-4.851v4.851h4.851Zm837.8,0h-4.851v4.851h4.851Zm-395.632,0h-4.851v4.851h4.851Zm302.543,0h-4.851v4.851h4.851Zm-139.636,0h-4.851v4.851h4.851Zm-325.814,0h-4.851v4.851h4.851Zm-256,0h-4.851v4.851h4.851Zm209.451,0h-4.851v4.851h4.851Zm465.45,0H870.53v4.851h4.854Zm-442.176,0h-4.851v4.851h4.851Zm116.362,0H544.72v4.851h4.851Zm605.08,0H1149.8v4.851h4.851Zm-395.629,0h-4.851v4.851h4.851Zm418.9,0h-4.851v4.851h4.851ZM177.213,680.456h-4.851v4.854h4.851Zm535.265,0h-4.851v4.854h4.851Zm465.447,0h-4.851v4.854h4.851Zm-605.083,0H567.99v4.854h4.851Zm-69.815,0h-4.854v4.854h4.854Zm-162.907,0h-4.854v4.854h4.854Zm465.447,0h-4.851v4.854h4.851Zm69.818,0H870.53v4.854h4.854Zm-93.092,0h-4.851v4.854h4.851Zm-162.907,0h-4.851v4.854h4.851Zm69.818,0h-4.851v4.854H689.2Zm-256,0h-4.851v4.854h4.851Zm-139.636,0h-4.851v4.854h4.851Zm372.361,0h-4.854v4.854h4.854Zm162.9,0h-4.851v4.854h4.851Zm186.181,0h-4.851v4.854h4.851Zm-46.544,0h-4.851v4.854h4.851Zm-418.9,0H544.72v4.854h4.851Zm-279.269,0h-4.851v4.854H270.3Zm814.534,0h-4.851v4.854h4.851Zm23.271,0h-4.851v4.854h4.851Zm-209.451,0H893.8v4.854h4.851Zm-581.809,0H312v4.854h4.851Zm837.8,0H1149.8v4.854h4.851Zm-767.986,0h-4.851v4.854h4.851Zm-162.907,0h-4.851v4.854h4.851Zm23.271,0h-4.851v4.854h4.851Zm162.907,0h-4.851v4.854h4.851Zm-46.544,0h-4.851v4.854h4.851Zm581.809,0h-4.851v4.854H945.2Zm-744.716,0h-4.851v4.854h4.851Zm256,0h-4.851v4.854h4.851Zm69.818,0h-4.851v4.854H526.3Zm325.814,0H847.26v4.854h4.851Zm186.181,0h-4.854v4.854h4.854Zm-302.543,0H730.9v4.854h4.851Zm395.632,0h-4.851v4.854h4.851Zm-139.636,0h-4.851v4.854h4.851Zm-232.722,0h-4.851v4.854h4.851Zm302.54,0h-4.851v4.854h4.851Zm-581.809,0H474.9v4.854h4.851Zm116.363,0h-4.851v4.854h4.851Zm46.544,0h-4.851v4.854h4.851Zm279.269,0h-4.851v4.854h4.851ZM293.572,657.033h-4.851v4.851h4.851Zm674.9,0h-4.851v4.851h4.851Zm-442.176,0h-4.851v4.851H526.3Zm209.451,0H730.9v4.851h4.851Zm418.9,0H1149.8v4.851h4.851Zm-954.167,0h-4.851v4.851h4.851Zm372.358,0H567.99v4.851h4.851Zm-349.084,0h-4.851v4.851h4.851Zm605.08,0h-4.851v4.851h4.851Zm93.092,0h-4.851v4.851h4.851Zm-139.636,0h-4.851v4.851h4.851Zm-69.815,0h-4.851v4.851h4.851Zm395.629,0h-4.851v4.851h4.851Zm-605.08,0h-4.854v4.851h4.854Zm628.353,0h-4.851v4.851h4.851Zm-325.814,0h-4.851v4.851h4.851Zm139.633,0h-4.851v4.851H945.2Zm-186.177,0h-4.851v4.851h4.851Zm-488.72,0h-4.851v4.851H270.3Zm-93.089,0h-4.851v4.851h4.851Zm69.815,0h-4.851v4.851h4.851Zm302.543,0H544.72v4.851h4.851Zm628.354,0h-4.851v4.851h4.851Zm-116.363,0h-4.851v4.851h4.851Zm23.274,0h-4.851v4.851h4.851Zm-186.181,0H893.8v4.851h4.851Zm-302.54,0h-4.851v4.851h4.851Zm-279.269,0H312v4.851h4.851Zm46.544,0h-4.851v4.851h4.851Zm651.627,0h-4.851v4.851h4.851Zm-372.358,0h-4.851v4.851h4.851Zm395.632,0h-4.854v4.851h4.854Zm-162.907,0H870.53v4.851h4.854Zm-535.265,0h-4.854v4.851h4.854Zm325.814,0h-4.854v4.851h4.854Zm-186.181,0H474.9v4.851h4.851Zm511.991,0h-4.851v4.851h4.851Zm-605.08,0h-4.851v4.851h4.851Zm232.722,0h-4.851v4.851h4.851Zm69.818,0h-4.851v4.851H689.2Zm-232.725,0h-4.851v4.851h4.851Zm-46.544,0h-4.851v4.851h4.851Zm442.176,0H847.26v4.851h4.851Zm-418.9,0h-4.851v4.851h4.851Zm162.907-23.426h-4.851v4.854h4.851Zm-139.636,0h-4.851v4.854h4.851Zm209.454,0h-4.854v4.854h4.854Zm139.633,0h-4.851v4.854h4.851Zm-605.083,0h-4.851v4.854h4.851Zm791.26,0h-4.851v4.854h4.851Zm46.548,0h-4.854v4.854h4.854Zm116.359,0H1149.8v4.854h4.851Zm-139.633,0h-4.851v4.854h4.851Zm-162.907,0H847.26v4.854h4.851Zm-442.176,0h-4.851v4.854h4.851Zm-186.177,0h-4.851v4.854h4.851Zm721.442,0h-4.851v4.854H945.2Zm-581.809,0h-4.851v4.854h4.851Zm767.99,0h-4.851v4.854h4.851Zm-884.352,0h-4.851v4.854h4.851Zm488.72,0H730.9v4.854h4.851Zm186.181,0h-4.851v4.854h4.851Zm-605.083,0H312v4.854h4.851Zm256,0H567.99v4.854h4.851Zm-23.271,0H544.72v4.854h4.851Zm279.266,0h-4.851v4.854h4.851Zm69.818,0H893.8v4.854h4.851Zm209.451,0h-4.851v4.854h4.851Zm69.818,0h-4.851v4.854h4.851Zm-791.26,0h-4.851v4.854h4.851Zm302.54,0h-4.851v4.854H689.2Zm-186.177,0h-4.854v4.854h4.854Zm-325.814,0h-4.851v4.854h4.851Zm116.359,0h-4.851v4.854h4.851Zm325.814,0h-4.851v4.854h4.851Zm-186.177,0h-4.851v4.854h4.851Zm46.544,0H474.9v4.854h4.851Zm-139.633,0h-4.854v4.854h4.854Zm372.358,0h-4.851v4.854h4.851Zm-69.818,0h-4.851v4.854h4.851Zm418.9,0h-4.851v4.854h4.851Zm-302.54,0h-4.851v4.854h4.851Zm23.271,0h-4.851v4.854h4.851Zm302.543,0h-4.851v4.854h4.851Zm-116.362,0h-4.851v4.854h4.851Zm-698.172,0h-4.851v4.854H270.3Zm256,0h-4.851v4.854H526.3Zm349.087,0H870.53v4.854h4.854Zm279.266-23.423H1149.8v4.851h4.851Zm-954.167,0h-4.851v4.851h4.851Zm186.181,0h-4.851v4.851h4.851Zm-209.451,0h-4.851v4.851h4.851Zm581.809,0h-4.851v4.851h4.851Zm23.271,0h-4.851v4.851h4.851Zm93.092,0H870.53v4.851h4.854Zm302.54,0h-4.851v4.851h4.851Zm-744.716,0h-4.851v4.851h4.851Zm558.535,0h-4.851v4.851h4.851Zm23.274,0h-4.851v4.851h4.851Zm-93.089,0h-4.851v4.851h4.851Zm-372.358,0H544.72v4.851h4.851Zm-139.636,0h-4.851v4.851h4.851Zm209.451,0h-4.851v4.851h4.851Zm46.548,0h-4.854v4.851h4.854Zm-395.632,0h-4.851v4.851H270.3Zm209.451,0H474.9v4.851h4.851Zm-23.274,0h-4.851v4.851h4.851Zm-116.359,0h-4.854v4.851h4.854Zm721.442,0h-4.851v4.851h4.851Zm-256,0h-4.851v4.851h4.851Zm-302.54,0h-4.854v4.851h4.854Zm209.451,0h-4.851v4.851h4.851Zm395.629,0h-4.851v4.851h4.851Zm-814.534,0h-4.851v4.851h4.851Zm395.632,0h-4.851v4.851H689.2Zm139.633,0h-4.851v4.851h4.851Zm69.818,0H893.8v4.851h4.851Zm-581.809,0H312v4.851h4.851Zm256,0H567.99v4.851h4.851Zm511.994,0h-4.851v4.851h4.851Zm-116.362,0h-4.851v4.851h4.851Zm69.818,0h-4.854v4.851h4.854Zm-674.9,0h-4.851v4.851h4.851Zm-116.362,0h-4.851v4.851h4.851Zm349.087,0h-4.851v4.851h4.851Zm-372.358,0h-4.851v4.851h4.851Zm628.353,0H847.26v4.851h4.851Zm279.269,0h-4.851v4.851h4.851Zm-395.632,0H730.9v4.851h4.851Zm209.451,0h-4.851v4.851H945.2Zm-302.54,0h-4.851v4.851h4.851Zm-116.363,0h-4.851v4.851H526.3Zm651.627-23.422h-4.851v4.851h4.851Zm-93.089,0h-4.851v4.851h4.851Zm-186.181,0H893.8v4.851h4.851Zm-69.818,0h-4.851v4.851h4.851Zm-46.544,0h-4.851v4.851h4.851Zm209.451,0h-4.851v4.851h4.851Zm-186.177,0h-4.851v4.851h4.851Zm325.814,0h-4.851v4.851h4.851Zm-162.907,0h-4.851v4.851h4.851Zm46.544,0h-4.851v4.851h4.851Zm-69.818,0h-4.851v4.851H945.2Zm-23.271,0h-4.851v4.851h4.851Zm-69.818,0H847.26v4.851h4.851Zm23.274,0H870.53v4.851h4.854Zm279.266,0H1149.8v4.851h4.851Zm-46.544,0h-4.851v4.851h4.851Zm-69.815,0h-4.854v4.851h4.854Zm23.271,0h-4.851v4.851h4.851Zm-861.078,0h-4.851v4.851h4.851Zm116.362,0H312v4.851h4.851Zm279.269,0h-4.851v4.851h4.851Zm-302.543,0h-4.851v4.851h4.851Zm46.548,0h-4.854v4.851h4.854Zm209.451,0H544.72v4.851h4.851Zm-186.181,0h-4.851v4.851h4.851Zm209.451,0H567.99v4.851h4.851Zm-395.629,0h-4.851v4.851h4.851Zm349.084,0h-4.851v4.851H526.3Zm209.451,0H730.9v4.851h4.851Zm-488.72,0h-4.851v4.851h4.851Zm442.176,0h-4.851v4.851H689.2Zm23.274,0h-4.851v4.851h4.851Zm-488.72,0h-4.851v4.851h4.851Zm418.9,0h-4.851v4.851h4.851Zm-372.358,0h-4.851v4.851H270.3Zm395.632,0h-4.854v4.851h4.854Zm-46.548,0h-4.851v4.851h4.851Zm139.636,0h-4.851v4.851h4.851Zm-302.543,0h-4.851v4.851h4.851Zm-46.544,0h-4.851v4.851h4.851Zm23.274,0h-4.851v4.851h4.851Zm-46.544,0h-4.851v4.851h4.851Zm93.089,0H474.9v4.851h4.851Zm23.274,0h-4.854v4.851h4.854ZM642.66,563.337h-4.851v4.851h4.851Zm-162.907,0H474.9v4.851h4.851Zm465.447,0h-4.851v4.851H945.2Zm162.907,0h-4.851v4.851h4.851Zm-837.8,0h-4.851v4.851H270.3Zm581.809,0H847.26v4.851h4.851Zm-232.725,0h-4.851v4.851h4.851Zm-395.629,0h-4.851v4.851h4.851Zm209.451,0h-4.851v4.851h4.851Zm558.535,0h-4.851v4.851h4.851Zm-535.265,0h-4.851v4.851h4.851Zm256,0h-4.851v4.851h4.851Zm116.359,0h-4.851v4.851h4.851Zm-162.9,0h-4.854v4.851h4.854Zm-418.906,0h-4.851v4.851h4.851Zm884.352,0h-4.851v4.851h4.851Zm-116.363,0h-4.851v4.851h4.851Zm-465.447,0H544.72v4.851h4.851Zm372.358,0h-4.851v4.851h4.851Zm139.633,0h-4.851v4.851h4.851Zm-488.72,0H567.99v4.851h4.851Zm-232.722,0h-4.854v4.851h4.854Zm46.544,0h-4.851v4.851h4.851Zm-23.274,0h-4.851v4.851h4.851Zm162.907,0h-4.851v4.851H526.3Zm511.994,0h-4.854v4.851h4.854Zm-442.176,0h-4.851v4.851h4.851Zm-93.089,0h-4.854v4.851h4.854Zm-209.454,0h-4.851v4.851h4.851Zm861.078,0H1149.8v4.851h4.851Zm-744.716,0h-4.851v4.851h4.851Zm465.45,0H870.53v4.851h4.854Zm93.089,0h-4.851v4.851h4.851Zm-69.818,0H893.8v4.851h4.851Zm-581.809,0H312v4.851h4.851Zm767.99,0h-4.851v4.851h4.851Zm-395.632,0h-4.851v4.851H689.2Zm488.72,0h-4.851v4.851h4.851Zm-395.632,0h-4.851v4.851h4.851Zm23.274,0h-4.851v4.851h4.851Zm-69.818,0H730.9v4.851h4.851Zm-535.265,0h-4.851v4.851h4.851Zm-23.271,0h-4.851v4.851h4.851Zm581.809,0h-4.851v4.851h4.851Zm349.084-23.422h-4.851v4.851h4.851Zm23.274,0h-4.851v4.851h4.851Zm-209.451,0h-4.851v4.851h4.851Zm-116.362,0h-4.851v4.851h4.851Zm209.451,0h-4.851v4.851h4.851Zm-767.99,0h-4.851v4.851h4.851Zm279.269,0h-4.851v4.851H526.3Zm23.274,0H544.72v4.851h4.851Zm-279.269,0h-4.851v4.851H270.3Zm93.089,0h-4.851v4.851h4.851Zm46.544,0h-4.851v4.851h4.851Zm162.907,0H567.99v4.851h4.851Zm-395.629,0h-4.851v4.851h4.851Zm884.349,0h-4.851v4.851h4.851Zm-93.089,0h-4.851v4.851h4.851Zm23.271,0h-4.851v4.851h4.851Zm-651.624,0h-4.854v4.851h4.854Zm302.54,0h-4.851v4.851h4.851Zm209.451,0H847.26v4.851h4.851Zm-232.725,0h-4.851v4.851h4.851Zm-186.177,0h-4.851v4.851h4.851Zm232.725,0h-4.854v4.851h4.854Zm232.722,0H893.8v4.851h4.851Zm-698.171,0h-4.851v4.851h4.851Zm256,0h-4.851v4.851h4.851Zm-162.907,0h-4.851v4.851h4.851Zm-69.815,0h-4.851v4.851h4.851Zm511.991,0H730.9v4.851h4.851Zm-349.084,0h-4.851v4.851h4.851Zm791.26,0h-4.851v4.851h4.851Zm-418.9,0h-4.851v4.851h4.851Zm-162.907,0h-4.851v4.851h4.851Zm-93.089,0h-4.854v4.851h4.854Zm651.624,0H1149.8v4.851h4.851Zm-69.815,0h-4.851v4.851h4.851Zm-372.358,0h-4.851v4.851h4.851Zm69.815,0h-4.851v4.851h4.851Zm-465.447,0H312v4.851h4.851Zm372.358,0h-4.851v4.851H689.2Zm139.633,0h-4.851v4.851h4.851Zm116.363,0h-4.851v4.851H945.2Zm-465.447,0H474.9v4.851h4.851Zm395.632,0H870.53v4.851h4.854Zm162.907,0h-4.854v4.851h4.854Zm46.544-23.426h-4.851v4.851h4.851Zm-69.818,0h-4.851v4.851h4.851Zm-674.9,0h-4.854v4.851h4.854Zm279.266,0h-4.851v4.851h4.851Zm-349.084,0h-4.851v4.851H270.3Zm279.269,0H544.72v4.851h4.851Zm46.544,0h-4.851v4.851h4.851Zm139.633,0H730.9v4.851h4.851Zm-535.265,0h-4.851v4.851h4.851Zm791.26,0h-4.851v4.851h4.851Zm-418.9,0H567.99v4.851h4.851Zm535.265,0h-4.851v4.851h4.851Zm-209.451,0H893.8v4.851h4.851Zm-23.271,0H870.53v4.851h4.854Zm-232.725,0h-4.851v4.851h4.851Zm-232.725,0h-4.851v4.851h4.851Zm-93.089,0H312v4.851h4.851Zm-23.274,0h-4.851v4.851h4.851Zm535.265,0h-4.851v4.851h4.851Zm-139.633,0h-4.851v4.851H689.2Zm256,0h-4.851v4.851H945.2Zm186.181,0h-4.851v4.851h4.851Zm-349.088,0h-4.851v4.851h4.851Zm-256,0h-4.851v4.851H526.3Zm-162.907,0h-4.851v4.851h4.851Zm116.362,0H474.9v4.851h4.851Zm558.539,0h-4.854v4.851h4.854Zm116.359,0H1149.8v4.851h4.851Zm-442.173,0h-4.851v4.851h4.851Zm-256,0h-4.851v4.851h4.851Zm-69.815,0h-4.851v4.851h4.851Zm116.362,0h-4.854v4.851h4.854Zm256,0h-4.851v4.851h4.851Zm-535.265,0h-4.851v4.851h4.851Zm837.8,0h-4.851v4.851h4.851Zm-139.633,0h-4.851v4.851h4.851Zm46.544,0h-4.851v4.851h4.851Zm209.451,0h-4.851v4.851h4.851Zm-325.814,0H847.26v4.851h4.851Zm-418.9,0h-4.851v4.851h4.851Zm232.725,0h-4.854v4.851h4.854Zm-418.906,0h-4.851v4.851h4.851Zm558.538,0h-4.851v4.851h4.851Zm-628.353,0h-4.851v4.851h4.851ZM340.12,493.066h-4.854v4.851h4.854Zm581.809,0h-4.851v4.851h4.851Zm162.907,0h-4.851v4.851h4.851Zm-325.814,0h-4.851v4.851h4.851Zm-256,0h-4.854v4.851h4.854Zm465.447,0h-4.851v4.851h4.851Zm-581.809,0h-4.851v4.851h4.851Zm209.451,0h-4.851v4.851h4.851Zm-46.544,0H544.72v4.851h4.851Zm349.084,0H893.8v4.851h4.851Zm-372.358,0h-4.851v4.851H526.3Zm46.544,0H567.99v4.851h4.851Zm-256,0H312v4.851h4.851Zm46.544,0h-4.851v4.851h4.851Zm674.9,0h-4.854v4.851h4.854Zm-861.078,0h-4.851v4.851h4.851Zm814.531,0h-4.851v4.851h4.851Zm69.818,0h-4.851v4.851h4.851Zm-581.809,0H474.9v4.851h4.851Zm465.447,0h-4.851v4.851H945.2Zm-162.907,0h-4.851v4.851h4.851Zm325.814,0h-4.851v4.851h4.851Zm-488.72,0h-4.851v4.851h4.851Zm535.265,0H1149.8v4.851h4.851Zm-488.717,0h-4.854v4.851h4.854Zm-418.906,0h-4.851v4.851h4.851Zm628.357,0H870.53v4.851h4.854Zm-674.9,0h-4.851v4.851h4.851Zm23.274,0h-4.851v4.851h4.851Zm186.177,0h-4.851v4.851h4.851Zm302.543,0h-4.851v4.851h4.851Zm302.54,0h-4.851v4.851h4.851Zm-186.181,0h-4.851v4.851h4.851Zm23.274,0H847.26v4.851h4.851Zm-558.538,0h-4.851v4.851h4.851Zm884.352,0h-4.851v4.851h4.851Zm-46.544,0h-4.851v4.851h4.851Zm-698.172,0h-4.851v4.851h4.851Zm23.271,0h-4.851v4.851h4.851Zm186.181,0h-4.851v4.851h4.851Zm46.544,0h-4.851v4.851H689.2Zm116.362,0h-4.851v4.851h4.851Zm-69.818,0H730.9v4.851h4.851Zm-465.447,0h-4.851v4.851H270.3Zm767.99-23.426h-4.854v4.851h4.854Zm-232.725,0h-4.851v4.851h4.851Zm256,0h-4.851v4.851h4.851Zm-511.991,0H544.72v4.851h4.851Zm395.629,0h-4.851v4.851H945.2Zm-674.9,0h-4.851v4.851H270.3Zm581.809,0H847.26v4.851h4.851Zm116.363,0h-4.851v4.851h4.851Zm-46.544,0h-4.851v4.851h4.851Zm209.451,0h-4.851v4.851h4.851Zm-349.088,0h-4.851v4.851h4.851Zm-418.9,0h-4.851v4.851h4.851Zm162.907,0h-4.851v4.851H526.3Zm-69.818,0h-4.851v4.851h4.851Zm23.274,0H474.9v4.851h4.851Zm-46.544,0h-4.851v4.851h4.851Zm395.628,0h-4.851v4.851h4.851Zm-418.9,0h-4.851v4.851h4.851Zm-162.907,0h-4.851v4.851h4.851Zm93.092,0h-4.854v4.851h4.854Zm325.814,0h-4.854v4.851h4.854Zm209.451,0H870.53v4.851h4.854Zm-256,0h-4.851v4.851h4.851Zm-325.814,0h-4.851v4.851h4.851Zm861.078,0H1149.8v4.851h4.851Zm-651.624,0h-4.854v4.851h4.854Zm-186.181,0H312v4.851h4.851Zm581.809,0H893.8v4.851h4.851Zm-186.177,0h-4.851v4.851h4.851Zm465.447,0h-4.851v4.851h4.851Zm-791.26,0h-4.851v4.851h4.851Zm349.084,0H730.9v4.851h4.851Zm349.087,0h-4.851v4.851h4.851Zm-69.818,0h-4.851v4.851h4.851Zm-23.274,0h-4.851v4.851h4.851Zm-395.628,0h-4.851v4.851h4.851Zm93.089,0h-4.851v4.851H689.2Zm-511.991,0h-4.851v4.851h4.851Zm930.893,0h-4.851v4.851h4.851Zm-535.265,0H567.99v4.851h4.851Zm186.181,0h-4.851v4.851h4.851Zm-558.539,0h-4.851v4.851h4.851Zm442.176,0h-4.851v4.851h4.851Zm-418.9,0h-4.851v4.851h4.851ZM363.39,446.217h-4.851v4.851h4.851Zm581.809,0h-4.851v4.851H945.2Zm93.092,0h-4.854v4.851h4.854Zm-232.725,0h-4.851v4.851h4.851Zm-418.9,0h-4.851v4.851h4.851Zm46.544,0h-4.851v4.851h4.851Zm279.269,0h-4.851v4.851h4.851Zm116.359,0h-4.851v4.851h4.851Zm-605.08,0h-4.851v4.851h4.851Zm279.269,0h-4.854v4.851h4.854Zm186.177,0h-4.851v4.851H689.2Zm488.72,0h-4.851v4.851h4.851Zm-698.172,0H474.9v4.851h4.851Zm372.358,0H847.26v4.851h4.851Zm-535.265,0H312v4.851h4.851Zm-46.544,0h-4.851v4.851H270.3Zm-93.089,0h-4.851v4.851h4.851Zm581.809,0h-4.851v4.851h4.851Zm139.633,0H893.8v4.851h4.851Zm-256,0h-4.851v4.851h4.851Zm-69.818,0H567.99v4.851h4.851Zm-372.358,0h-4.851v4.851h4.851Zm418.9,0h-4.851v4.851h4.851Zm488.72,0h-4.851v4.851h4.851Zm-93.089,0h-4.851v4.851h4.851Zm-23.274,0h-4.851v4.851h4.851Zm-395.628,0h-4.851v4.851h4.851Zm139.633,0H730.9v4.851h4.851Zm139.636,0H870.53v4.851h4.854Zm-581.812,0h-4.851v4.851h4.851Zm791.263,0h-4.851v4.851h4.851Zm-744.716,0h-4.854v4.851h4.854Zm-93.092,0h-4.851v4.851h4.851Zm418.906,0h-4.854v4.851h4.854Zm-256,0h-4.851v4.851h4.851Zm372.358,0h-4.851v4.851h4.851Zm-325.814,0h-4.851v4.851h4.851Zm674.9,0h-4.851v4.851h4.851Zm-162.907,0h-4.851v4.851h4.851Zm-418.9,0H544.72v4.851h4.851Zm-23.274,0h-4.851v4.851H526.3Zm535.265,0h-4.851v4.851h4.851Zm-139.633,0h-4.851v4.851h4.851Zm232.722,0H1149.8v4.851h4.851ZM409.935,422.792h-4.851v4.854h4.851Zm-23.271,0h-4.851v4.854h4.851Zm372.358,0h-4.851v4.854h4.851Zm209.451,0h-4.851v4.854h4.851Zm-488.72,0H474.9v4.854h4.851Zm-23.274,0h-4.851v4.854h4.851Zm558.539,0h-4.851v4.854h4.851Zm93.089,0h-4.851v4.854h4.851Zm-861.078,0h-4.851v4.854h4.851Zm605.083,0H847.26v4.854h4.851Zm232.725,0h-4.851v4.854h4.851Zm-442.176,0h-4.851v4.854h4.851Zm349.084,0h-4.851v4.854h4.851Zm-698.172,0h-4.851v4.854h4.851Zm581.812,0H870.53v4.854h4.854Zm-256,0h-4.851v4.854h4.851Zm-349.084,0h-4.851v4.854H270.3Zm535.265,0h-4.851v4.854h4.851Zm-372.358,0h-4.851v4.854h4.851Zm256,0h-4.851v4.854H689.2Zm-488.72,0h-4.851v4.854h4.851Zm628.353,0h-4.851v4.854h4.851Zm302.543,0h-4.851v4.854h4.851Zm-465.447,0h-4.854v4.854h4.854Zm46.544,0h-4.851v4.854h4.851Zm-488.72,0h-4.851v4.854h4.851Zm930.893,0H1149.8v4.854h4.851Zm-372.358,0h-4.851v4.854h4.851Zm139.636,0h-4.851v4.854h4.851Zm-558.538,0h-4.851v4.854h4.851Zm-23.27,0h-4.854v4.854h4.854Zm186.177,0h-4.851v4.854H526.3Zm69.818,0h-4.851v4.854h4.851Zm-93.089,0h-4.854v4.854h4.854Zm535.265,0h-4.854v4.854h4.854Zm139.633,0h-4.851v4.854h4.851Zm-232.725,0h-4.851v4.854H945.2Zm-628.353,0H312v4.854h4.851Zm581.809,0H893.8v4.854h4.851Zm-162.907,0H730.9v4.854h4.851Zm-558.535,0h-4.851v4.854h4.851Zm395.629,0H567.99v4.854h4.851Zm-23.271,0H544.72v4.854h4.851Zm511.991,0h-4.851v4.854h4.851ZM409.935,399.369h-4.851v4.851h4.851Zm767.99,0h-4.851v4.851h4.851Zm-162.907,0h-4.851v4.851h4.851Zm-767.99,0h-4.851v4.851h4.851Zm884.352,0h-4.851v4.851h4.851Zm23.271,0H1149.8v4.851h4.851Zm-767.986,0h-4.851v4.851h4.851Zm-162.907,0h-4.851v4.851h4.851Zm-23.274,0h-4.851v4.851h4.851Zm93.089,0h-4.851v4.851h4.851Zm139.636,0h-4.851v4.851h4.851Zm-162.907,0h-4.851v4.851H270.3Zm93.089,0h-4.851v4.851h4.851Zm674.9,0h-4.854v4.851h4.854Zm-698.171,0h-4.854v4.851h4.854Zm-23.274,0H312v4.851h4.851Zm744.716,0h-4.851v4.851h4.851Zm-884.349,0h-4.851v4.851h4.851Zm907.623,0h-4.851v4.851h4.851Zm23.271,0h-4.851v4.851h4.851Zm-488.72,0h-4.851v4.851h4.851Zm232.725,0H847.26v4.851h4.851Zm-372.358,0H474.9v4.851h4.851Zm209.451,0h-4.851v4.851H689.2Zm186.181,0H870.53v4.851h4.854Zm-46.548,0h-4.851v4.851h4.851Zm-162.9,0h-4.854v4.851h4.854Zm-209.454,0h-4.851v4.851h4.851Zm186.181,0h-4.851v4.851h4.851Zm279.269,0h-4.851v4.851h4.851Zm-418.9,0h-4.854v4.851h4.854Zm23.27,0h-4.851v4.851H526.3Zm418.9,0h-4.851v4.851H945.2Zm-395.629,0H544.72v4.851h4.851Zm349.084,0H893.8v4.851h4.851Zm-302.54,0h-4.851v4.851h4.851Zm-23.274,0H567.99v4.851h4.851Zm395.632,0h-4.851v4.851h4.851Zm-162.907,0h-4.851v4.851h4.851Zm-46.544,0h-4.851v4.851h4.851Zm-23.274,0H730.9v4.851h4.851Zm256,0h-4.851v4.851h4.851Zm-279.266,0h-4.851v4.851h4.851Zm69.815,0h-4.851v4.851h4.851Zm279.269-23.426h-4.851V380.8h4.851Zm-465.447,0h-4.851V380.8h4.851Zm-23.274,0H567.99V380.8h4.851Zm-23.271,0H544.72V380.8h4.851Zm349.084,0H893.8V380.8h4.851Zm-721.442,0h-4.851V380.8h4.851Zm558.535,0H730.9V380.8h4.851Zm46.544,0h-4.851V380.8h4.851Zm-418.9,0h-4.851V380.8h4.851Zm674.9,0h-4.854V380.8h4.854Zm139.633,0h-4.851V380.8h4.851Zm-418.9,0h-4.851V380.8h4.851Zm162.907,0h-4.851V380.8h4.851Zm-581.809,0h-4.854V380.8h4.854Zm186.177,0h-4.851V380.8H526.3Zm628.354,0H1149.8V380.8h4.851Zm-349.084,0h-4.851V380.8h4.851Zm-139.633,0h-4.854V380.8h4.854Zm-418.906,0h-4.851V380.8h4.851Zm395.632,0h-4.851V380.8h4.851Zm-418.9,0h-4.851V380.8h4.851Zm605.08,0h-4.851V380.8h4.851Zm-628.353,0h-4.851V380.8h4.851Zm930.9,0h-4.851V380.8h4.851Zm-279.269,0H847.26V380.8h4.851Zm256,0h-4.851V380.8h4.851Zm-418.9,0h-4.851V380.8H689.2Zm256,0h-4.851V380.8H945.2Zm-69.815,0H870.53V380.8h4.854Zm209.451,0h-4.851V380.8h4.851Zm-791.263,0h-4.851V380.8h4.851Zm325.814,0h-4.851V380.8h4.851Zm-349.084,0h-4.851V380.8H270.3Zm442.176,0h-4.851V380.8h4.851Zm-395.632,0H312V380.8h4.851Zm674.9,0h-4.851V380.8h4.851Zm-488.717,0h-4.854V380.8h4.854Zm465.447,0h-4.851V380.8h4.851Zm-511.994,0h-4.851V380.8h4.851Zm23.274,0H474.9V380.8h4.851Zm-69.818,0h-4.851V380.8h4.851Zm605.083,0h-4.851V380.8h4.851Zm-628.353,0h-4.851V380.8h4.851Zm46.544,0h-4.851V380.8h4.851Zm186.177-23.422h-4.851v4.851h4.851Zm349.087,0h-4.851v4.851h4.851Zm46.544,0h-4.851v4.851h4.851Zm-744.716,0h-4.851v4.851H270.3Zm605.083,0H870.53v4.851h4.854Zm-279.269,0h-4.851v4.851h4.851Zm-162.907,0h-4.851v4.851h4.851Zm-116.362,0H312v4.851h4.851Zm744.716,0h-4.851v4.851h4.851Zm-162.907,0H893.8v4.851h4.851Zm-605.083,0h-4.851v4.851h4.851Zm791.263,0h-4.851v4.851h4.851Zm23.271,0h-4.851v4.851h4.851Zm-535.265,0H567.99v4.851h4.851Zm-186.177,0h-4.851v4.851h4.851Zm279.269,0h-4.854v4.851h4.854Zm46.544,0h-4.851v4.851h4.851Zm442.173,0H1149.8v4.851h4.851Zm-977.438,0h-4.851v4.851h4.851Zm628.353,0h-4.851v4.851h4.851Zm-395.632,0h-4.851v4.851h4.851Zm349.087,0h-4.851v4.851h4.851Zm418.9,0h-4.851v4.851h4.851Zm-395.632,0h-4.851v4.851h4.851Zm209.451,0h-4.851v4.851h4.851Zm-162.907,0h-4.851v4.851h4.851Zm23.274,0H847.26v4.851h4.851Zm-209.451,0h-4.851v4.851h4.851Zm-395.632,0h-4.851v4.851h4.851Zm-46.544,0h-4.851v4.851h4.851Zm930.9,0h-4.851v4.851h4.851Zm-442.176,0h-4.851v4.851H689.2Zm-232.725,0h-4.851v4.851h4.851Zm-232.722,0h-4.851v4.851h4.851Zm511.991,0H730.9v4.851h4.851Zm302.543,0h-4.854v4.851h4.854Zm-558.539,0H474.9v4.851h4.851Zm23.274,0h-4.854v4.851h4.854Zm23.27,0h-4.851v4.851H526.3Zm23.274,0H544.72v4.851h4.851Zm-186.181,0h-4.851v4.851h4.851Zm558.538,0h-4.851v4.851h4.851Zm-581.809,0h-4.854v4.851h4.854Zm605.08,0h-4.851v4.851H945.2ZM1177.924,329.1h-4.851v4.851h4.851Zm-535.265,0h-4.851v4.851h4.851Zm-116.363,0h-4.851v4.851H526.3Zm139.636,0h-4.854v4.851h4.854Zm-418.906,0h-4.851v4.851h4.851Zm209.451,0h-4.851v4.851h4.851Zm372.358,0h-4.851v4.851h4.851Zm-488.717,0h-4.854v4.851h4.854Zm535.265,0H870.53v4.851h4.854Zm-325.814,0H544.72v4.851h4.851Zm418.9,0h-4.851v4.851h4.851Zm-698.172,0h-4.851v4.851H270.3Zm744.716,0h-4.851v4.851h4.851Zm-162.907,0H847.26v4.851h4.851Zm256,0h-4.851v4.851h4.851Zm-488.72,0h-4.851v4.851h4.851Zm325.814,0h-4.851v4.851H945.2Zm-232.722,0h-4.851v4.851h4.851Zm279.266,0h-4.851v4.851h4.851Zm162.907,0H1149.8v4.851h4.851Zm-721.442,0h-4.851v4.851h4.851Zm-256,0h-4.851v4.851h4.851Zm605.08,0h-4.851v4.851h4.851Zm-23.271,0h-4.851v4.851h4.851Zm-256,0h-4.854v4.851h4.854Zm-302.543,0h-4.851v4.851h4.851Zm162.907,0h-4.851v4.851h4.851Zm325.814,0h-4.851v4.851H689.2Zm46.544,0H730.9v4.851h4.851Zm69.818,0h-4.851v4.851h4.851Zm-581.809,0h-4.851v4.851h4.851Zm186.177,0h-4.851v4.851h4.851Zm628.357,0h-4.854v4.851h4.854Zm93.089,0h-4.851v4.851h4.851Zm-558.539,0H567.99v4.851h4.851Zm349.087,0h-4.851v4.851h4.851Zm-325.813,0h-4.851v4.851h4.851Zm-209.451,0h-4.851v4.851h4.851Zm674.9,0h-4.851v4.851h4.851Zm-162.907,0H893.8v4.851h4.851Zm186.181,0h-4.851v4.851h4.851Zm-767.99,0H312v4.851h4.851Zm162.907,0H474.9v4.851h4.851Zm-186.181,0h-4.851v4.851h4.851Zm837.808-23.426h-4.851v4.851h4.851Zm-628.353,0h-4.854v4.851h4.854Zm-279.269,0h-4.851v4.851h4.851Zm162.907,0h-4.851v4.851h4.851Zm302.54,0h-4.851v4.851H689.2Zm116.362,0h-4.851v4.851h4.851Zm-605.083,0h-4.851v4.851h4.851Zm325.814,0h-4.851v4.851H526.3Zm349.087,0H870.53v4.851h4.854Zm-302.543,0H567.99v4.851h4.851Zm69.818,0h-4.851v4.851h4.851Zm-162.907,0H474.9v4.851h4.851Zm-23.274,0h-4.851v4.851h4.851Zm372.358,0h-4.851v4.851h4.851Zm-162.9,0h-4.854v4.851h4.854Zm-488.72,0h-4.851v4.851h4.851Zm372.358,0H544.72v4.851h4.851Zm-186.181,0h-4.851v4.851h4.851Zm418.9,0h-4.851v4.851h4.851Zm209.451,0h-4.851v4.851h4.851Zm69.818,0h-4.851v4.851h4.851Zm-302.54,0h-4.851v4.851h4.851Zm279.269,0h-4.854v4.851h4.854Zm-302.543,0H730.9v4.851h4.851Zm442.176,0h-4.851v4.851h4.851Zm-279.269,0H893.8v4.851h4.851Zm-651.627,0h-4.851v4.851h4.851Zm162.907,0h-4.851v4.851h4.851Zm23.274,0h-4.851v4.851h4.851Zm511.991,0h-4.851v4.851H945.2Zm-628.353,0H312v4.851h4.851Zm837.8,0H1149.8v4.851h4.851Zm-442.173,0h-4.851v4.851h4.851Zm302.54,0h-4.851v4.851h4.851Zm93.089,0h-4.851v4.851h4.851Zm-139.633,0h-4.851v4.851h4.851Zm-698.172,0h-4.851v4.851H270.3Zm349.084,0h-4.851v4.851h4.851Zm-325.814,0h-4.851v4.851h4.851Zm558.538,0H847.26v4.851h4.851Zm-511.991,0h-4.854v4.851h4.854Zm744.716,0h-4.851v4.851h4.851Zm-162.907,0h-4.851v4.851h4.851Zm-325.813,0h-4.851v4.851h4.851Zm23.271-23.423h-4.851V287.1h4.851Zm279.269,0H893.8V287.1h4.851Zm-302.54,0h-4.851V287.1h4.851Zm558.535,0H1149.8V287.1h4.851Zm-674.9,0H474.9V287.1h4.851Zm-139.633,0h-4.854V287.1h4.854Zm-139.636,0h-4.851V287.1h4.851Zm209.451,0h-4.851V287.1h4.851Zm302.543,0h-4.851V287.1h4.851Zm139.633,0H847.26V287.1h4.851Zm-605.083,0h-4.851V287.1h4.851Zm558.538,0h-4.851V287.1h4.851Zm139.633,0h-4.851V287.1H945.2Zm46.544,0h-4.851V287.1h4.851Zm-232.722,0h-4.851V287.1h4.851Zm-69.818,0h-4.851V287.1H689.2Zm-418.9,0h-4.851V287.1H270.3Zm791.26,0h-4.851V287.1h4.851Zm116.363,0h-4.851V287.1h4.851Zm-162.907,0h-4.851V287.1h4.851Zm-232.725,0h-4.851V287.1h4.851Zm-465.447,0H312V287.1h4.851Zm-139.633,0h-4.851V287.1h4.851Zm907.623,0h-4.851V287.1h4.851Zm-721.445,0h-4.851V287.1h4.851Zm372.358,0H730.9V287.1h4.851Zm-186.177,0H544.72V287.1h4.851Zm488.72,0h-4.854V287.1h4.854Zm-69.818,0h-4.851V287.1h4.851Zm-325.814,0h-4.851V287.1h4.851Zm-139.633,0h-4.854V287.1h4.854Zm-209.454,0h-4.851V287.1h4.851Zm372.361,0h-4.854V287.1h4.854Zm442.173,0h-4.851V287.1h4.851Zm-721.442,0h-4.851V287.1h4.851Zm744.716,0h-4.851V287.1h4.851Zm-907.623,0h-4.851V287.1h4.851Zm232.722,0h-4.851V287.1h4.851Zm418.905,0H870.53V287.1h4.854Zm46.544,0h-4.851V287.1h4.851Zm-488.72,0h-4.851V287.1h4.851Zm139.633,0H567.99V287.1h4.851Zm-46.544,0h-4.851V287.1H526.3Zm302.54,0h-4.851V287.1h4.851Zm-46.544-23.426h-4.851v4.851h4.851Zm-442.173,0h-4.854v4.851h4.854Zm488.717,0h-4.851v4.851h4.851Zm-162.9,0h-4.854v4.851h4.854Zm-442.176,0h-4.851v4.851h4.851Zm325.814,0H544.72v4.851h4.851Zm23.271,0H567.99v4.851h4.851Zm325.813,0H893.8v4.851h4.851Zm-162.907,0H730.9v4.851h4.851Zm-209.451,0h-4.851v4.851H526.3Zm651.627,0h-4.851v4.851h4.851Zm-930.9,0h-4.851v4.851h4.851Zm23.274,0h-4.851v4.851H270.3Zm186.177,0h-4.851v4.851h4.851Zm535.265,0h-4.851v4.851h4.851Zm-349.084,0h-4.851v4.851h4.851Zm418.9,0h-4.851v4.851h4.851Zm-674.9,0h-4.851v4.851h4.851Zm581.809,0h-4.851v4.851h4.851Zm116.362,0h-4.851v4.851h4.851Zm-721.445,0h-4.851v4.851h4.851Zm232.725,0h-4.851v4.851h4.851Zm162.907,0h-4.851v4.851h4.851Zm-349.087,0h-4.851v4.851h4.851Zm-93.089,0H312v4.851h4.851Zm535.265,0H847.26v4.851h4.851Zm-558.538,0h-4.851v4.851h4.851Zm-93.089,0h-4.851v4.851h4.851Zm488.72,0h-4.851v4.851H689.2Zm186.181,0H870.53v4.851h4.854Zm-69.818,0h-4.851v4.851h4.851Zm232.725,0h-4.854v4.851h4.854Zm-605.083,0h-4.851v4.851h4.851Zm46.544,0H474.9v4.851h4.851Zm23.274,0h-4.854v4.851h4.854Zm116.359,0h-4.851v4.851h4.851Zm325.814,0h-4.851v4.851H945.2Zm-232.722,0h-4.851v4.851h4.851Zm-535.265,0h-4.851v4.851h4.851Zm954.167,0h-4.851v4.851h4.851Zm-209.451,0h-4.851v4.851h4.851Zm186.177,0h-4.851v4.851h4.851Zm46.544,0H1149.8v4.851h4.851Zm-139.633,0h-4.851v4.851h4.851Z" transform="translate(-172.362 -258.824)" opacity="0.2" fill="url(#radial-gradient)"/>
</svg>
