<svg xmlns="http://www.w3.org/2000/svg" xmlns:xlink="http://www.w3.org/1999/xlink" width="65.697" height="65.697" viewBox="0 0 65.697 65.697">
  <defs>
    <filter id="Path_8323" x="4.666" y="4.666" width="56.365" height="56.365" filterUnits="userSpaceOnUse">
      <feOffset dy="3" input="SourceAlpha"/>
      <feGaussianBlur stdDeviation="3" result="blur"/>
      <feFlood flood-color="#053a80" flood-opacity="0.188"/>
      <feComposite operator="in" in2="blur"/>
      <feComposite in="SourceGraphic"/>
    </filter>
    <filter id="Path_8324" x="0" y="0" width="65.697" height="65.697" filterUnits="userSpaceOnUse">
      <feOffset dy="3" input="SourceAlpha"/>
      <feGaussianBlur stdDeviation="3" result="blur-2"/>
      <feFlood flood-color="#053a80" flood-opacity="0.188"/>
      <feComposite operator="in" in2="blur-2"/>
      <feComposite in="SourceGraphic"/>
    </filter>
  </defs>
  <g id="Group_487" data-name="Group 487" transform="translate(-612.361 -1941.01)" opacity="0.9">
    <g transform="matrix(1, 0, 0, 1, 612.36, 1941.01)" filter="url(#Path_8323)">
      <path id="Path_8323-2" data-name="Path 8323" d="M19.183,0A19.183,19.183,0,1,1,0,19.183,19.183,19.183,0,0,1,19.183,0Z" transform="translate(13.67 10.67)" fill="#fff"/>
    </g>
    <path id="Polygon_1" data-name="Polygon 1" d="M7.042,1.167a1,1,0,0,1,1.637,0l5.938,8.467a1,1,0,0,1-.819,1.574H1.923A1,1,0,0,1,1.1,9.635Z" transform="translate(653.255 1962.997) rotate(90)" fill="#1f4166"/>
    <g transform="matrix(1, 0, 0, 1, 612.36, 1941.01)" filter="url(#Path_8324)">
      <g id="Path_8324-2" data-name="Path 8324" transform="translate(9 6)" fill="none">
        <path d="M23.849,0A23.849,23.849,0,1,1,0,23.849,23.849,23.849,0,0,1,23.849,0Z" stroke="none"/>
        <path d="M 23.8486328125 1.000003814697266 C 20.76365280151367 1.000003814697266 17.7714729309082 1.603981018066406 14.95522308349609 2.795154571533203 C 12.23454284667969 3.945903778076172 9.790912628173828 5.593513488769531 7.692211151123047 7.692211151123047 C 5.593513488769531 9.790912628173828 3.945903778076172 12.23454284667969 2.795154571533203 14.95522308349609 C 1.603981018066406 17.7714729309082 1.000003814697266 20.76365280151367 1.000003814697266 23.8486328125 C 1.000003814697266 26.93362236022949 1.603981018066406 29.9257926940918 2.795154571533203 32.74204254150391 C 3.945903778076172 35.46272277832031 5.593513488769531 37.90635299682617 7.692211151123047 40.00505447387695 C 9.790912628173828 42.10375213623047 12.23454284667969 43.75136184692383 14.95522308349609 44.9021110534668 C 17.7714729309082 46.09329223632812 20.76364326477051 46.69726181030273 23.8486328125 46.69726181030273 C 26.93362236022949 46.69726181030273 29.9257926940918 46.09329223632812 32.74204254150391 44.9021110534668 C 35.46272277832031 43.75136184692383 37.90635299682617 42.10375213623047 40.00505447387695 40.00505447387695 C 42.10375213623047 37.90635299682617 43.75136184692383 35.46272277832031 44.9021110534668 32.74204254150391 C 46.09329223632812 29.9257926940918 46.69726181030273 26.93362236022949 46.69726181030273 23.8486328125 C 46.69726181030273 20.76364326477051 46.09329223632812 17.7714729309082 44.9021110534668 14.95522308349609 C 43.75136184692383 12.23454284667969 42.10375213623047 9.790912628173828 40.00505447387695 7.692211151123047 C 37.90635299682617 5.593513488769531 35.46272277832031 3.945903778076172 32.74204254150391 2.795154571533203 C 29.9257926940918 1.603981018066406 26.93362236022949 1.000003814697266 23.8486328125 1.000003814697266 M 23.8486328125 3.814697265625e-06 C 37.01987457275391 3.814697265625e-06 47.69726181030273 10.67740249633789 47.69726181030273 23.8486328125 C 47.69726181030273 37.01987457275391 37.01987457275391 47.69726181030273 23.8486328125 47.69726181030273 C 10.67740249633789 47.69726181030273 3.814697265625e-06 37.01987457275391 3.814697265625e-06 23.8486328125 C 3.814697265625e-06 10.67740249633789 10.67740249633789 3.814697265625e-06 23.8486328125 3.814697265625e-06 Z" stroke="none" fill="#fff"/>
      </g>
    </g>
  </g>
</svg>
